name C:\Users\u0101727\Documents\MyRepositories\upper-imu-dc\OpenSim\subject0\MA\ResultsMA\grid_4nodes_9dim\angles_21.mot
datacolumns 10
datarows 37
range 2150.01000000 2150.37000000
endheader 
time	clav_prot	clav_elev	scapula_abduction	scapula_elevation	scapula_upward_rot	scapula_winging	plane_elv	shoulder_elv	axial_rot	
       2150.01000000	        -50.00000000	         10.00000000	        -21.66666667	         10.00000000	         90.00000000	        -10.00000000	        -90.00000000	         26.66666667	         90.00000000	
       2150.02000000	        -38.33333333	         10.00000000	        -21.66666667	         10.00000000	         90.00000000	        -10.00000000	        -90.00000000	         26.66666667	         90.00000000	
       2150.03000000	        -26.66666667	         10.00000000	        -21.66666667	         10.00000000	         90.00000000	        -10.00000000	        -90.00000000	         26.66666667	         90.00000000	
       2150.04000000	        -15.00000000	         10.00000000	        -21.66666667	         10.00000000	         90.00000000	        -10.00000000	        -90.00000000	         26.66666667	         90.00000000	
       2150.05000000	        -50.00000000	         20.00000000	        -21.66666667	         10.00000000	         90.00000000	        -10.00000000	        -90.00000000	         26.66666667	         90.00000000	
       2150.06000000	        -38.33333333	         20.00000000	        -21.66666667	         10.00000000	         90.00000000	        -10.00000000	        -90.00000000	         26.66666667	         90.00000000	
       2150.07000000	        -26.66666667	         20.00000000	        -21.66666667	         10.00000000	         90.00000000	        -10.00000000	        -90.00000000	         26.66666667	         90.00000000	
       2150.08000000	        -15.00000000	         20.00000000	        -21.66666667	         10.00000000	         90.00000000	        -10.00000000	        -90.00000000	         26.66666667	         90.00000000	
       2150.09000000	        -50.00000000	        -10.00000000	         -3.33333333	         10.00000000	         90.00000000	        -10.00000000	        -90.00000000	         26.66666667	         90.00000000	
       2150.10000000	        -38.33333333	        -10.00000000	         -3.33333333	         10.00000000	         90.00000000	        -10.00000000	        -90.00000000	         26.66666667	         90.00000000	
       2150.11000000	        -26.66666667	        -10.00000000	         -3.33333333	         10.00000000	         90.00000000	        -10.00000000	        -90.00000000	         26.66666667	         90.00000000	
       2150.12000000	        -15.00000000	        -10.00000000	         -3.33333333	         10.00000000	         90.00000000	        -10.00000000	        -90.00000000	         26.66666667	         90.00000000	
       2150.13000000	        -50.00000000	          0.00000000	         -3.33333333	         10.00000000	         90.00000000	        -10.00000000	        -90.00000000	         26.66666667	         90.00000000	
       2150.14000000	        -38.33333333	          0.00000000	         -3.33333333	         10.00000000	         90.00000000	        -10.00000000	        -90.00000000	         26.66666667	         90.00000000	
       2150.15000000	        -26.66666667	          0.00000000	         -3.33333333	         10.00000000	         90.00000000	        -10.00000000	        -90.00000000	         26.66666667	         90.00000000	
       2150.16000000	        -15.00000000	          0.00000000	         -3.33333333	         10.00000000	         90.00000000	        -10.00000000	        -90.00000000	         26.66666667	         90.00000000	
       2150.17000000	        -50.00000000	         10.00000000	         -3.33333333	         10.00000000	         90.00000000	        -10.00000000	        -90.00000000	         26.66666667	         90.00000000	
       2150.18000000	        -38.33333333	         10.00000000	         -3.33333333	         10.00000000	         90.00000000	        -10.00000000	        -90.00000000	         26.66666667	         90.00000000	
       2150.19000000	        -26.66666667	         10.00000000	         -3.33333333	         10.00000000	         90.00000000	        -10.00000000	        -90.00000000	         26.66666667	         90.00000000	
       2150.20000000	        -15.00000000	         10.00000000	         -3.33333333	         10.00000000	         90.00000000	        -10.00000000	        -90.00000000	         26.66666667	         90.00000000	
       2150.21000000	        -50.00000000	         20.00000000	         -3.33333333	         10.00000000	         90.00000000	        -10.00000000	        -90.00000000	         26.66666667	         90.00000000	
       2150.22000000	        -38.33333333	         20.00000000	         -3.33333333	         10.00000000	         90.00000000	        -10.00000000	        -90.00000000	         26.66666667	         90.00000000	
       2150.23000000	        -26.66666667	         20.00000000	         -3.33333333	         10.00000000	         90.00000000	        -10.00000000	        -90.00000000	         26.66666667	         90.00000000	
       2150.24000000	        -15.00000000	         20.00000000	         -3.33333333	         10.00000000	         90.00000000	        -10.00000000	        -90.00000000	         26.66666667	         90.00000000	
       2150.25000000	        -50.00000000	        -10.00000000	         15.00000000	         10.00000000	         90.00000000	        -10.00000000	        -90.00000000	         26.66666667	         90.00000000	
       2150.26000000	        -38.33333333	        -10.00000000	         15.00000000	         10.00000000	         90.00000000	        -10.00000000	        -90.00000000	         26.66666667	         90.00000000	
       2150.27000000	        -26.66666667	        -10.00000000	         15.00000000	         10.00000000	         90.00000000	        -10.00000000	        -90.00000000	         26.66666667	         90.00000000	
       2150.28000000	        -15.00000000	        -10.00000000	         15.00000000	         10.00000000	         90.00000000	        -10.00000000	        -90.00000000	         26.66666667	         90.00000000	
       2150.29000000	        -50.00000000	          0.00000000	         15.00000000	         10.00000000	         90.00000000	        -10.00000000	        -90.00000000	         26.66666667	         90.00000000	
       2150.30000000	        -38.33333333	          0.00000000	         15.00000000	         10.00000000	         90.00000000	        -10.00000000	        -90.00000000	         26.66666667	         90.00000000	
       2150.31000000	        -26.66666667	          0.00000000	         15.00000000	         10.00000000	         90.00000000	        -10.00000000	        -90.00000000	         26.66666667	         90.00000000	
       2150.32000000	        -15.00000000	          0.00000000	         15.00000000	         10.00000000	         90.00000000	        -10.00000000	        -90.00000000	         26.66666667	         90.00000000	
       2150.33000000	        -50.00000000	         10.00000000	         15.00000000	         10.00000000	         90.00000000	        -10.00000000	        -90.00000000	         26.66666667	         90.00000000	
       2150.34000000	        -38.33333333	         10.00000000	         15.00000000	         10.00000000	         90.00000000	        -10.00000000	        -90.00000000	         26.66666667	         90.00000000	
       2150.35000000	        -26.66666667	         10.00000000	         15.00000000	         10.00000000	         90.00000000	        -10.00000000	        -90.00000000	         26.66666667	         90.00000000	
       2150.36000000	        -15.00000000	         10.00000000	         15.00000000	         10.00000000	         90.00000000	        -10.00000000	        -90.00000000	         26.66666667	         90.00000000	
       2150.37000000	        -50.00000000	         20.00000000	         15.00000000	         10.00000000	         90.00000000	        -10.00000000	        -90.00000000	         26.66666667	         90.00000000	
